<svg id="Capa_1" data-name="Capa 1" xmlns="http://www.w3.org/2000/svg" viewBox="0 0 124.455 32.426">
  <defs>
    <style>
      .cls-1 {
        fill: #000e8f;
      }

      .cls-2 {
        fill: #008dd8;
      }

      .cls-3 {
        fill: #fff;
      }
    </style>
  </defs>
  <title>06e5b60b-189a-4e84-9f8e-72080e357c3f</title>
  <g>
    <g>
      <path class="cls-1" d="M45.576,14.9c0-8.211-10.2-14.9-22.787-14.9S0,6.693,0,14.9c0,.212,0,.8,0,.873,0,8.711,8.917,15.766,22.786,15.766,13.955,0,22.79-7.053,22.79-15.764Z"/>
      <ellipse class="cls-2" cx="22.793" cy="14.897" rx="21.91" ry="14.017"/>
      <g>
        <path class="cls-3" d="M15.518,10.475c-.012.022-.23.248-.088.43a2.739,2.739,0,0,0,2.494.453,7.237,7.237,0,0,0,2.266-1.434,9.061,9.061,0,0,1,2.587-1.65,2.955,2.955,0,0,1,1.886-.049,5.8,5.8,0,0,1,1.719,1c1.5,1.127,7.527,6.389,8.569,7.3a51.994,51.994,0,0,1,9.633-3.1,11.937,11.937,0,0,0-4.575-7.2c-3.473,1.459-7.717,2.22-11.867.193A11.482,11.482,0,0,0,23.658,5.4c-3.293.076-4.719,1.5-6.229,3.01Z"/>
        <path class="cls-3" d="M34.7,17.1c-.071-.063-7.088-6.2-8.678-7.4a3.891,3.891,0,0,0-1.969-.934,2.686,2.686,0,0,0-.936.09,8.478,8.478,0,0,0-2.565,1.528,7.317,7.317,0,0,1-2.5,1.549,4.051,4.051,0,0,1-2.761-.414,1.222,1.222,0,0,1-.458-.5.849.849,0,0,1,.235-.917L17,8.005c.225-.225.452-.449.684-.671a12.561,12.561,0,0,0-1.765.4,7.7,7.7,0,0,1-2.059.385,19.569,19.569,0,0,1-2.1-.329A31.4,31.4,0,0,1,6.174,5.768,12.383,12.383,0,0,0,1.048,13.2c.4.1,1.033.294,1.3.354,6.23,1.385,8.171,2.812,8.523,3.11a2.062,2.062,0,0,1,3.233.19,2.355,2.355,0,0,1,1.485-.522,2.774,2.774,0,0,1,.891.156,2.046,2.046,0,0,1,1.254,1.133,2.078,2.078,0,0,1,.867-.184,2.614,2.614,0,0,1,1.036.229A2.213,2.213,0,0,1,20.86,20.14a2.116,2.116,0,0,1,.248-.013,2.467,2.467,0,0,1,2.174,3.637,3.921,3.921,0,0,0,2.145.574,1.372,1.372,0,0,0,1-.437c.062-.088.127-.19.066-.264l-1.758-1.953s-.289-.274-.194-.379.278.047.4.153c.895.747,1.987,1.875,1.987,1.875.018.012.091.155.495.228a1.827,1.827,0,0,0,1.389-.324,2.086,2.086,0,0,0,.3-.313.1.1,0,0,1-.02.016.934.934,0,0,0-.05-1.157L27,19.477s-.294-.271-.194-.38.278.048.407.155c.65.543,1.568,1.465,2.448,2.327a1.673,1.673,0,0,0,1.969-.069,1.413,1.413,0,0,0,.729-1.286,1.468,1.468,0,0,0-.433-.856l-2.8-2.818s-.3-.253-.191-.381c.086-.108.278.047.4.153.893.747,3.311,2.964,3.311,2.964a1.7,1.7,0,0,0,1.9-.038,1.27,1.27,0,0,0,.625-1A1.484,1.484,0,0,0,34.7,17.1Z"/>
        <path class="cls-3" d="M21.107,20.672a6.236,6.236,0,0,0-.972.215c-.034-.023.027-.2.067-.3s.614-1.822-.781-2.421a1.644,1.644,0,0,0-1.945.29c-.059.061-.085.056-.092-.022a1.539,1.539,0,0,0-1.082-1.43,2.111,2.111,0,0,0-2.379.848,1.523,1.523,0,1,0-.453,1.3c.009.008.012.022.008.052a2.011,2.011,0,0,0,1.256,2.312,1.5,1.5,0,0,0,1.475-.228c.121-.086.141-.049.124.064a1.435,1.435,0,0,0,1.075,1.54,1.363,1.363,0,0,0,1.6-.3c.136-.124.173-.1.18.088a1.923,1.923,0,1,0,1.922-2.01Z"/>
      </g>
      <path class="cls-1" d="M34.976,16.364c-2.162-1.886-7.158-6.23-8.511-7.245A5.946,5.946,0,0,0,24.7,8.092a2.918,2.918,0,0,0-.866-.135,3.647,3.647,0,0,0-1.1.185,9.01,9.01,0,0,0-2.588,1.639l-.043.034a7.145,7.145,0,0,1-2.21,1.407,3.739,3.739,0,0,1-.818.091,2.1,2.1,0,0,1-1.537-.495c-.038-.049-.014-.128.076-.242l.012-.015,1.9-2.049c1.489-1.489,2.9-2.9,6.135-2.97l.162,0a11.472,11.472,0,0,1,4.257,1.008,13.184,13.184,0,0,0,5.8,1.392,15.149,15.149,0,0,0,6.37-1.526c-.247-.208-.505-.411-.77-.61a14.019,14.019,0,0,1-5.594,1.27A12.345,12.345,0,0,1,28.46,5.769a12.221,12.221,0,0,0-4.634-1.095l-.183,0a8.045,8.045,0,0,0-5.283,1.876,10.459,10.459,0,0,0-2.636.481,7.133,7.133,0,0,1-1.857.356c-.238,0-.667-.022-.705-.023A36.173,36.173,0,0,1,6.483,5.515c-.272.193-.534.391-.789.594A33.006,33.006,0,0,0,12.935,8.2c.3.02.615.053.932.054a7.919,7.919,0,0,0,2.1-.389c.4-.113.849-.237,1.317-.326q-.188.184-.375.373L14.972,10a.971.971,0,0,0-.264,1.068,1.356,1.356,0,0,0,.508.564,4.026,4.026,0,0,0,2.051.52,3.727,3.727,0,0,0,.818-.086,7.407,7.407,0,0,0,2.559-1.574A8.514,8.514,0,0,1,23.16,8.989a2.868,2.868,0,0,1,.7-.1,1.41,1.41,0,0,1,.181.011,3.78,3.78,0,0,1,1.9.908c1.586,1.191,8.6,7.331,8.673,7.392a1.35,1.35,0,0,1,.421,1.032,1.124,1.124,0,0,1-.561.9,1.707,1.707,0,0,1-.921.287,1.515,1.515,0,0,1-.813-.236c-.026-.021-2.431-2.226-3.315-2.966a.742.742,0,0,0-.416-.222.228.228,0,0,0-.184.087c-.139.171.017.409.2.565l2.809,2.823a1.331,1.331,0,0,1,.388.761,1.282,1.282,0,0,1-.667,1.164,1.811,1.811,0,0,1-1,.329,1.449,1.449,0,0,1-.8-.243l-.4-.4c-.736-.724-1.5-1.474-2.053-1.938a.747.747,0,0,0-.419-.217.238.238,0,0,0-.177.075c-.063.071-.108.2.05.408a1.4,1.4,0,0,0,.142.158l2.05,2.3a.785.785,0,0,1,.046.982l-.072.092a2.114,2.114,0,0,1-.19.184,1.64,1.64,0,0,1-1,.318,1.577,1.577,0,0,1-.277-.024.7.7,0,0,1-.4-.17l-.025-.026c-.112-.116-1.145-1.17-2-1.884a.707.707,0,0,0-.4-.213.243.243,0,0,0-.185.083c-.169.185.085.462.192.564L26.386,23.7a.4.4,0,0,1-.066.118c-.063.087-.275.3-.909.378a1.748,1.748,0,0,1-.232.014,4,4,0,0,1-1.711-.508,2.607,2.607,0,0,0-2.358-3.718l-.094,0a2.315,2.315,0,0,0-1.323-2.448,2.744,2.744,0,0,0-1.09-.24,2.217,2.217,0,0,0-.8.145,2.194,2.194,0,0,0-1.277-1.084,2.861,2.861,0,0,0-.936-.165,2.465,2.465,0,0,0-1.457.467,2.2,2.2,0,0,0-3.273-.184c-.544-.415-2.7-1.787-8.48-3.1-.28-.063-.922-.247-1.315-.363a9.317,9.317,0,0,0-.148.948s1.066.255,1.275.3c5.9,1.311,7.852,2.674,8.181,2.932a2.214,2.214,0,0,0,2.447,3.025,2.578,2.578,0,0,0,1.668,1.927,2.2,2.2,0,0,0,.788.153,2.02,2.02,0,0,0,.5-.063A2.564,2.564,0,0,0,18.021,23.7a1.951,1.951,0,0,0,.675-.12,2.6,2.6,0,0,0,4.279.826,4.914,4.914,0,0,0,2.208.659,2.82,2.82,0,0,0,.334-.021,2.022,2.022,0,0,0,1.5-.733,1.083,1.083,0,0,0,.092-.15,2.532,2.532,0,0,0,.707.111,2.382,2.382,0,0,0,1.427-.51,1.966,1.966,0,0,0,.841-1.224l0-.018a2.361,2.361,0,0,0,.477.049,2.654,2.654,0,0,0,1.466-.465,2.115,2.115,0,0,0,1.052-1.884,2.36,2.36,0,0,0,.483.05,2.533,2.533,0,0,0,1.374-.423,2.006,2.006,0,0,0,.954-1.553,2.1,2.1,0,0,0-.3-1.255,56.751,56.751,0,0,1,9.1-2.85,9.325,9.325,0,0,0-.127-.944A52.2,52.2,0,0,0,34.976,16.364ZM21.107,24.381a1.772,1.772,0,0,1-1.782-1.7c0-.082-.011-.3-.195-.3a.34.34,0,0,0-.217.114,1.254,1.254,0,0,1-.875.4,1.534,1.534,0,0,1-.577-.125c-1.017-.412-1.031-1.111-.99-1.392a.255.255,0,0,0-.037-.213l-.063-.056h-.063a.311.311,0,0,0-.177.072,1.486,1.486,0,0,1-.863.307,1.339,1.339,0,0,1-.482-.094,1.868,1.868,0,0,1-1.168-2.166.183.183,0,0,0-.058-.177l-.095-.078-.088.085a1.391,1.391,0,1,1,.412-1.177l.048.373.205-.316a1.932,1.932,0,0,1,2.222-.791,1.405,1.405,0,0,1,.985,1.309c.015.181.144.19.169.19a.227.227,0,0,0,.161-.084,1.4,1.4,0,0,1,1.024-.432,1.969,1.969,0,0,1,.767.173c1.309.562.715,2.225.708,2.242-.112.276-.117.4-.011.468l.052.025h.038a.926.926,0,0,0,.254-.067,2.236,2.236,0,0,1,.7-.154h0a1.785,1.785,0,1,1,0,3.571Z"/>
    </g>
    <g>
      <path class="cls-1" d="M123.221,5.408a5.311,5.311,0,0,0-7.491,0A5.673,5.673,0,0,0,114.5,9.06a5.646,5.646,0,0,0,1.235,3.669,5.369,5.369,0,0,0,7.491,0,5.645,5.645,0,0,0,1.234-3.669A5.672,5.672,0,0,0,123.221,5.408Zm-2.038,5.912a2.256,2.256,0,0,1-3.437,0,3.671,3.671,0,0,1-.6-2.259,3.65,3.65,0,0,1,.6-2.254,2.264,2.264,0,0,1,3.437,0,3.678,3.678,0,0,1,.6,2.254A3.7,3.7,0,0,1,121.183,11.319Z"/>
      <path class="cls-1" d="M102.2,4.546a6.246,6.246,0,0,0-2.863-.636,4.2,4.2,0,0,0-3.5,1.291,3.756,3.756,0,0,0-.722,2.108h2.467a1.844,1.844,0,0,1,.364-.9,1.627,1.627,0,0,1,1.3-.448,2.656,2.656,0,0,1,1.243.229.859.859,0,0,1,.423.829.769.769,0,0,1-.551.727,4.041,4.041,0,0,1-1.022.224l-.874.108a6.226,6.226,0,0,0-2.258.629,2.781,2.781,0,0,0-1.4,2.609,2.691,2.691,0,0,0,.871,2.148,3.455,3.455,0,0,0,2.206.758c5.579.249,5.516-2.94,5.568-3.6V6.95A2.445,2.445,0,0,0,102.2,4.546Zm-1.3,5.57a2.048,2.048,0,0,1-.732,1.767,2.669,2.669,0,0,1-1.542.485,1.406,1.406,0,0,1-.9-.292,1.135,1.135,0,0,1-.368-.947,1.167,1.167,0,0,1,.6-1.085A3.809,3.809,0,0,1,99.143,9.7l.583-.108a4.264,4.264,0,0,0,.685-.177,2.572,2.572,0,0,0,.495-.245Z"/>
      <path class="cls-1" d="M89.479,6.1a1.663,1.663,0,0,1,1.409.591,2.19,2.19,0,0,1,.388.984h2.752A3.765,3.765,0,0,0,92.57,4.764,5.611,5.611,0,0,0,89.4,3.942a4.622,4.622,0,0,0-3.566,1.395,5.526,5.526,0,0,0-1.293,3.9,5.44,5.44,0,0,0,1.17,3.617,4.5,4.5,0,0,0,3.65,1.395,4.4,4.4,0,0,0,3.747-1.672,4.124,4.124,0,0,0,.886-2.2H91.255a2.313,2.313,0,0,1-.481,1.252,1.649,1.649,0,0,1-1.341.482A1.792,1.792,0,0,1,87.618,10.9a4.655,4.655,0,0,1-.265-1.72,5.084,5.084,0,0,1,.265-1.8A1.849,1.849,0,0,1,89.479,6.1Z"/>
      <path class="cls-1" d="M83.808,3.942c-5.653,0-5.319,5.005-5.319,5.005v5.084h2.565V9.263a3.927,3.927,0,0,1,.294-1.736,2.115,2.115,0,0,1,2.066-1c.077,0,.179,0,.3.01s.267.017.43.036V3.961c-.114-.008-.188-.011-.22-.014S83.855,3.942,83.808,3.942Z"/>
      <path class="cls-1" d="M74.384,11.375a1.863,1.863,0,0,1-.351.388,2.189,2.189,0,0,1-1.434.389,2.432,2.432,0,0,1-1.366-.328,2.312,2.312,0,0,1-1.039-2.037h7.1a12.849,12.849,0,0,0-.085-1.934,4.8,4.8,0,0,0-.776-2.015A3.979,3.979,0,0,0,74.747,4.4a5.564,5.564,0,0,0-2.29-.455,4.7,4.7,0,0,0-3.485,1.35,5.28,5.28,0,0,0-1.344,3.883,4.722,4.722,0,0,0,1.488,3.9,5.314,5.314,0,0,0,3.433,1.2,4.734,4.734,0,0,0,3.666-1.422,3.45,3.45,0,0,0,.89-1.479ZM70.935,6.6a2.026,2.026,0,0,1,1.521-.556,2.232,2.232,0,0,1,1.512.525,2.128,2.128,0,0,1,.678,1.539H70.257A2.647,2.647,0,0,1,70.935,6.6Z"/>
      <path class="cls-1" d="M66.6,14.031H64.254V8.13a1.647,1.647,0,0,0-1.724-1.821A1.727,1.727,0,0,0,60.754,8.13v5.9H58.409V8.13a1.631,1.631,0,0,0-1.7-1.821A1.718,1.718,0,0,0,54.927,8.13v5.9H52.582V8.186A4.022,4.022,0,0,1,56.7,3.908a3.608,3.608,0,0,1,2.914,1.359,3.733,3.733,0,0,1,2.913-1.359c2.558,0,4.067,1.767,4.067,4.278Z"/>
      <path class="cls-1" d="M113.732.86s-2.584-.276-2.584,1.8l0,2.748a3.084,3.084,0,0,0-1.117-1.077,3.14,3.14,0,0,0-1.574-.389,3.737,3.737,0,0,0-3.07,1.431,6.3,6.3,0,0,0-1.148,3.992A5.307,5.307,0,0,0,105.4,12.91a4.943,4.943,0,0,0,3.657,1.324c4.724,0,4.669-4.051,4.669-4.051Zm-3.077,10.48a1.88,1.88,0,0,1-1.645.8,1.8,1.8,0,0,1-1.614-.809,4.128,4.128,0,0,1-.531-2.226,3.91,3.91,0,0,1,.522-2.1,1.788,1.788,0,0,1,1.64-.845,1.948,1.948,0,0,1,1.288.465,3.356,3.356,0,0,1,.9,2.624A3.557,3.557,0,0,1,110.655,11.341Z"/>
    </g>
    <g>
      <path class="cls-2" d="M71.315,30.314a1.206,1.206,0,0,1-.379.893,1.238,1.238,0,0,1-.9.373H68.751V22.664A4.112,4.112,0,0,1,70.3,19.111a5.158,5.158,0,0,1,3.356-.948,4.5,4.5,0,0,1,3.358,1.389,5.481,5.481,0,0,1,1.2,3.709,6.005,6.005,0,0,1-1.131,3.8,3.552,3.552,0,0,1-2.9,1.414,3.9,3.9,0,0,1-1.658-.334,2.815,2.815,0,0,1-1.207-1.154Zm4.3-6.942a3.758,3.758,0,0,0-.567-2.233,1.884,1.884,0,0,0-1.621-.782,1.854,1.854,0,0,0-1.585.782,3.776,3.776,0,0,0-.526,2.233,3.342,3.342,0,0,0,.565,2.121,1.877,1.877,0,0,0,1.621.782,1.8,1.8,0,0,0,1.545-.782,3.535,3.535,0,0,0,.567-2.121"/>
      <path class="cls-2" d="M95.214,27.648v-.63a2.835,2.835,0,0,1-1.8,1.3,3.672,3.672,0,0,1-2.24-.188,4.159,4.159,0,0,1-1.91-1.653,5.712,5.712,0,0,1-.8-3.182,6.15,6.15,0,0,1,1.055-3.736,4.05,4.05,0,0,1,3.39-1.432,4.7,4.7,0,0,1,3.3.967,4.137,4.137,0,0,1,1.518,3.569v5.245a4.378,4.378,0,0,1-4.815,4.5,4.221,4.221,0,0,1-4.222-3.2h2.7a2.07,2.07,0,0,0,2.129.947,2.026,2.026,0,0,0,1.114-.724,3.05,3.05,0,0,0,.573-1.787m-4.223-4.275q0,2.565,1.482,2.845a2.022,2.022,0,0,0,2.185-.69,2.772,2.772,0,0,0,.481-1.281,5.423,5.423,0,0,0,.019-1.729,3.433,3.433,0,0,0-.612-1.526,1.625,1.625,0,0,0-1.407-.669,1.708,1.708,0,0,0-1.7.928,4.834,4.834,0,0,0-.445,2.121"/>
      <path class="cls-2" d="M86.278,18.837a6.263,6.263,0,0,0-2.863-.636,4.206,4.206,0,0,0-3.5,1.291A3.756,3.756,0,0,0,79.2,21.6h2.469a1.835,1.835,0,0,1,.363-.9,1.627,1.627,0,0,1,1.3-.448,2.657,2.657,0,0,1,1.242.229.861.861,0,0,1,.423.83.769.769,0,0,1-.551.727,4.055,4.055,0,0,1-1.022.224l-.874.107A6.243,6.243,0,0,0,80.288,23a2.779,2.779,0,0,0-1.4,2.609,2.691,2.691,0,0,0,.871,2.148,3.454,3.454,0,0,0,2.206.759c5.578.249,5.515-2.941,5.566-3.6V21.241a2.444,2.444,0,0,0-1.25-2.4m-1.3,5.57a2.046,2.046,0,0,1-.732,1.767,2.669,2.669,0,0,1-1.542.484,1.4,1.4,0,0,1-.9-.291,1.133,1.133,0,0,1-.37-.947,1.169,1.169,0,0,1,.6-1.085,3.8,3.8,0,0,1,1.175-.348l.582-.108a4.122,4.122,0,0,0,.684-.177,2.534,2.534,0,0,0,.5-.246Z"/>
      <path class="cls-2" d="M107.436,19.646a5.312,5.312,0,0,0-7.492,0A5.67,5.67,0,0,0,98.71,23.3a5.644,5.644,0,0,0,1.235,3.668,5.372,5.372,0,0,0,7.492,0,5.649,5.649,0,0,0,1.232-3.668,5.675,5.675,0,0,0-1.232-3.652m-2.039,5.91a2.254,2.254,0,0,1-3.436,0,3.657,3.657,0,0,1-.6-2.258,3.638,3.638,0,0,1,.6-2.253,2.263,2.263,0,0,1,3.436,0A3.666,3.666,0,0,1,106,23.3a3.685,3.685,0,0,1-.6,2.258"/>
    </g>
  </g>
</svg>
