<?xml version="1.0" encoding="utf-8"?>
<!-- Generator: Adobe Illustrator 19.2.1, SVG Export Plug-In . SVG Version: 6.00 Build 0)  -->
<svg version="1.1" id="Vrstva_1" xmlns="http://www.w3.org/2000/svg" xmlns:xlink="http://www.w3.org/1999/xlink" x="0px" y="0px"
	 viewBox="0 0 206 205" style="enable-background:new 0 0 206 205;" xml:space="preserve">
<style type="text/css">
	.st0{display:none;fill:#7D65FF;stroke:url(#SVGID_1_);stroke-miterlimit:10;}
	.st1{opacity:5.000000e-002;fill:none;stroke:url(#first_1_);stroke-width:0.775;enable-background:new    ;}
	.st2{opacity:0.1;fill:none;stroke:url(#second_1_);stroke-width:0.775;enable-background:new    ;}
	.st3{opacity:0.15;fill:none;stroke:url(#third_1_);stroke-width:0.775;enable-background:new    ;}
	.st4{fill:#D808DC;}
	.st5{fill:#FDAF23;}
	.st6{fill:#EC7187;}
</style>
<linearGradient id="SVGID_1_" gradientUnits="userSpaceOnUse" x1="-4.4237" y1="106.0797" x2="212.0574" y2="106.0797">
	<stop  offset="0" style="stop-color:#8873FF"/>
	<stop  offset="1" style="stop-color:#8873FF"/>
</linearGradient>
<rect x="-3.9" y="-2.5" class="st0" width="215.5" height="217.1"/>
<g id="circle_body">
	<g id="wrap" transform="translate(-849.000000, -426.000000)">
		<g id="circle" transform="translate(850.000000, 427.000000)">
			
				<linearGradient id="first_1_" gradientUnits="userSpaceOnUse" x1="-107.1473" y1="250.3503" x2="-104.9823" y2="249.5415" gradientTransform="matrix(203 0 0 -203 21615 50833.9219)">
				<stop  offset="0" style="stop-color:#9D8CFF"/>
				<stop  offset="1" style="stop-color:#9D8CFF"/>
			</linearGradient>
			<path id="first" class="st1" d="M101.5,203c56.1,0,101.5-45.4,101.5-101.5S157.6,0,101.5,0C65,0,33,19.3,15.1,48.2
				C5.5,63.7,0,81.9,0,101.5C0,157.6,45.4,203,101.5,203z"/>
			
				<linearGradient id="second_1_" gradientUnits="userSpaceOnUse" x1="-106.9629" y1="250.2702" x2="-104.7979" y2="249.4615" gradientTransform="matrix(150 0 0 -150 15971 37577)">
				<stop  offset="0" style="stop-color:#937FFF"/>
				<stop  offset="1" style="stop-color:#937FFF"/>
			</linearGradient>
			<path id="second" class="st2" d="M102,177c41.4,0,75-33.6,75-75s-33.6-75-75-75c-25.6,0-48.3,12.9-61.8,32.5
				C31.9,71.6,27,86.2,27,102C27,143.4,60.6,177,102,177z"/>
			<linearGradient id="third_1_" gradientUnits="userSpaceOnUse" x1="55.6125" y1="102" x2="146.3875" y2="102">
				<stop  offset="0" style="stop-color:#9D8CFF"/>
				<stop  offset="1" style="stop-color:#9D8CFF"/>
			</linearGradient>
			<path id="third" class="st3" d="M101,147c24.9,0,45-20.1,45-45s-20.1-45-45-45c-11.1,0-21.2,4-29,10.6c-9.8,8.3-16,20.6-16,34.4
				C56,126.9,76.1,147,101,147z"/>
			<path id="c-third" class="st4" d="M58,117c1.1,0,2-0.9,2-2c0-0.7-0.3-1.3-0.8-1.6c-0.3-0.2-0.7-0.4-1.2-0.4c-1.1,0-2,0.9-2,2
				S56.9,117,58,117z"/>
			<path id="c-first" class="st5" d="M203,113c1.1,0,2-0.9,2-2c0-0.6-0.2-1.1-0.6-1.5c-0.4-0.3-0.8-0.5-1.4-0.5c-1.1,0-2,0.9-2,2
				S201.9,113,203,113z"/>
			<path id="c-second" class="st6" d="M107,29c1.1,0,2-0.9,2-2c0-0.5-0.2-0.9-0.4-1.2c-0.4-0.5-0.9-0.8-1.6-0.8c-1.1,0-2,0.9-2,2
				S105.9,29,107,29z"/>
		</g>
	</g>
</g>
</svg>
