<svg xmlns="http://www.w3.org/2000/svg" xmlns:xlink="http://www.w3.org/1999/xlink" viewBox="0 0 1920 420"><defs><style>.cls-1{fill:#fff}.cls-2{opacity:.1;fill:url(#linear-gradient)}.cls-3,.cls-4{opacity:.3}.cls-3{fill:url(#linear-gradient-2)}.cls-5{fill:url(#linear-gradient-3)}.cls-6{fill:url(#linear-gradient-4)}.cls-7{fill:url(#linear-gradient-5)}</style><linearGradient id="linear-gradient" x1="1920" y1="172.49" x2="0" y2="172.49" gradientUnits="userSpaceOnUse"><stop offset="0" stop-color="#ffc300"/><stop offset="1" stop-color="#d808dd"/></linearGradient><linearGradient id="linear-gradient-2" y1="214.72" y2="214.72" xlink:href="#linear-gradient"/><linearGradient id="linear-gradient-3" x1="1920" y1="144.44" x2="0" y2="144.44" gradientUnits="userSpaceOnUse"><stop offset="0" stop-color="#ffdb28"/><stop offset="1" stop-color="#fa1cff"/></linearGradient><linearGradient id="linear-gradient-4" y1="244.51" y2="244.51" xlink:href="#linear-gradient"/><linearGradient id="linear-gradient-5" y1="174.23" y2="174.23" xlink:href="#linear-gradient-3"/></defs><title>wave_new</title><g id="Layer_2" data-name="Layer 2"><g id="Layer_1-2" data-name="Layer 1"><path class="cls-1" d="M1920 290.23V420H0V256.52q19.26-2.26 38.55-3c11.77-.43 23.6-.53 35.23 0 11.66.35 23.17 1.51 34.55 2.92s22.57 3.7 33.62 6.31 21.91 6 32.69 9.84c21.58 7.58 42.81 17.53 65.14 28.09s46 21.66 71.34 30.76c12.68 4.52 25.71 8.51 38.95 11.93s26.72 6 40.23 8.18l10.15 1.37 5.08.67 5.08.52 10.16 1 10.14.68c13.53.91 27 1.06 40.8.84 13.76-.45 27.65-1.3 41.6-3.13a392.75 392.75 0 0 0 41.61-7.72c27.44-6.7 53.59-16.51 77.05-26s44.85-18.16 65.75-24.47c10.46-3.14 20.84-5.89 31.31-8.06s21-4 31.73-5.14a456.19 456.19 0 0 1 65.76-2.76 434.71 434.71 0 0 1 64.9 6.3 327 327 0 0 1 59.82 16.5c7.62 2.89 15.18 6.11 22.8 9.62 11.65 5.36 23.44 11.43 35.84 18.15q7.23 3.9 14.8 8.08c16.4 9 34.08 18.77 53.55 28.09a455 455 0 0 0 83 30.69 469.7 469.7 0 0 0 88.1 13.78q21.79 1.4 43.12 1.15c7.12-.18 14.21-.22 21.37-.56s14.35-.72 21.56-1.34a560.36 560.36 0 0 0 86.53-13.81c28.55-6.82 56.06-16.08 81.77-25.91s49.45-20.2 71.88-29.6 43.25-17.75 63.77-24.83a547 547 0 0 1 60.94-17.27 564.48 564.48 0 0 1 62-10c5.29-.49 10.53-1.06 15.83-1.51l16-1.09c10.76-.57 21.59-1 32.33-1.06a660.92 660.92 0 0 1 93.57 5.5z"/><path class="cls-2" d="M1920 .13v223.16a661.84 661.84 0 0 0-92.37-5.44c-10.74.06-21.57.5-32.33 1.07l-16 1.09c-5.3.44-10.54 1-15.83 1.5a559.77 559.77 0 0 0-62 10.06 546.81 546.81 0 0 0-60.94 17.25c-20.52 7.08-41.45 15.44-63.77 24.85s-46.06 19.73-71.88 29.59-53.22 19.09-81.77 25.9a558 558 0 0 1-86.5 13.84c-7.21.63-14.38.9-21.56 1.34s-14.25.39-21.37.57q-21.35.24-43.13-1.15a469.75 469.75 0 0 1-88.09-13.76 454.24 454.24 0 0 1-83-30.69c-25.47-12.19-47.88-25.12-68.35-36.17s-39.35-20.44-58.64-27.76a326.19 326.19 0 0 0-59.82-16.51 433.4 433.4 0 0 0-64.9-6.29 453.34 453.34 0 0 0-65.75 2.77c-10.74 1.15-21.23 3-31.73 5.13s-20.85 4.93-31.31 8.07c-20.9 6.31-42.22 15-65.75 24.46s-49.61 19.31-77.05 26a390.15 390.15 0 0 1-41.61 7.7c-13.95 1.84-27.84 2.68-41.6 3.14-13.75.21-27.27.07-40.8-.85l-10.15-.67-10.17-1-5.07-.51-5.08-.68-10.15-1.37c-13.51-2.18-27-4.76-40.23-8.17s-26.27-7.42-39-11.93c-21-7.54-40.82-16.41-59.68-25.25q-4.72-2.22-9.37-4.42l-2.25-1.09-6.19-2.91c-20.08-9.48-39.37-18.3-58.95-25.18q-16.17-5.7-32.69-9.82c-11-2.61-22.25-4.76-33.62-6.32-11.38-1.41-22.89-2.58-34.55-2.92-11.63-.55-23.46-.46-35.23 0q-19.88.72-39.77 3.14V145q17.68-3.53 35.68-5.86c12.88-1.64 25.78-2.9 38.9-3.49 13.09-.79 26.33-.71 39.61-.26s26.62 1.89 39.9 3.79 26.42 4.72 39.35 8c25.9 6.53 50.49 15.52 73.8 24s45.41 16.44 67.34 22.14q16.44 4.2 32.85 6.85c10.95 1.77 22 2.83 33 3.61l8.33.35 4.16.17h4.19l8.36.07 8.41-.21c5.6-.06 11.22-.5 16.81-.79 2.81-.11 5.56-.43 8.33-.68s5.53-.48 8.27-.78c10.91-1.35 21.68-2.95 32.13-5.29a298.61 298.61 0 0 0 30.77-8.57c20.2-6.91 39.88-16.17 61.45-27.16s45.16-23.15 70.9-33.5c12.85-5.15 26.07-9.93 39.55-14S729.26 105.77 743 103c6.86-1.55 13.7-2.63 20.57-3.89s13.69-2.08 20.55-3c6.81-.75 13.67-1.66 20.46-2.25s13.61-1.24 20.39-1.62a558.73 558.73 0 0 1 83.29.41 458.36 458.36 0 0 1 85 15.11c27.91 7.67 54.6 18.09 78.67 28.42s45.74 20.2 65.77 27.52a299.14 299.14 0 0 0 57.86 15.49 313.33 313.33 0 0 0 59.15 3.45c10.2-.31 20.6-1 31.09-2.1 5.23-.64 10.5-1.11 15.66-1.83s10.32-1.44 15.38-2.36a386 386 0 0 0 59-15c19.15-6.43 38.06-14.69 57.84-24.34s40.58-20.93 62.9-32.69 46.46-24.12 71.87-35.5A745.4 745.4 0 0 1 1648 38.35a768.5 768.5 0 0 1 83-21.3c7-1.3 13.93-2.68 20.89-3.89l20.87-3.32c13.84-2 27.67-3.83 41.63-5.21A888 888 0 0 1 1920 .13z"/><path class="cls-3" d="M1920 45.42v230.69q-12-2.81-24.25-5.13a644.77 644.77 0 0 0-126.45-10.9c-10.74.06-21.57.5-32.33 1.07l-16 1.09c-5.3.44-10.55 1-15.84 1.5a564.51 564.51 0 0 0-62 10.06 544.75 544.75 0 0 0-60.94 17.26c-20.52 7.07-41.44 15.43-63.77 24.84s-46 19.73-71.88 29.59-53.21 19.09-81.77 25.9a558 558 0 0 1-86.52 13.88c-7.21.63-14.38.91-21.56 1.35s-14.25.38-21.37.56q-21.35.24-43.12-1.15a468.91 468.91 0 0 1-88.1-13.79 451.56 451.56 0 0 1-79.45-29l-3.56-1.7C1004.18 333.44 988.6 325 974 317c-7.33-4-14.41-7.93-21.27-11.63-20.51-11.13-39.35-20.44-58.64-27.77a327 327 0 0 0-59.82-16.51 434.59 434.59 0 0 0-64.9-6.29 454.76 454.76 0 0 0-65.76 2.76c-10.74 1.15-21.23 3-31.73 5.13s-20.85 4.93-31.31 8.07c-20.9 6.31-42.22 15-65.75 24.47s-49.61 19.3-77 26A390.8 390.8 0 0 1 456.2 329c-13.95 1.84-27.84 2.68-41.6 3.14-13.75.21-27.27.07-40.8-.85l-10.14-.68-10.16-1-5.08-.51-5.08-.67-10.15-1.43c-13.51-2.18-27-4.76-40.23-8.17s-26.27-7.43-38.96-11.94c-25.32-9.11-49-20.16-71.34-30.75s-43.55-20.53-65.13-28.14q-16.17-5.7-32.69-9.82c-11-2.61-22.25-4.76-33.61-6.31s-22.9-2.59-34.55-2.93c-5.52-.26-11.09-.38-16.68-.38v-49.64q8.08-.69 16.25-1.07c13.09-.79 26.33-.7 39.61-.25s26.62 1.88 39.9 3.78 26.42 4.72 39.35 8c25.9 6.53 50.49 15.52 73.8 24.05s45.41 16.45 67.34 22.14q16.44 4.19 32.85 6.85c10.95 1.77 22 2.82 33 3.6l8.33.35 4.16.17h4.19l8.36.07 8.41-.21c5.6-.06 11.22-.5 16.81-.79 2.82-.11 5.56-.43 8.33-.68s5.53-.48 8.27-.78c10.91-1.35 21.68-3 32.13-5.29a298.61 298.61 0 0 0 30.77-8.57c20.2-6.91 39.88-16.17 61.45-27.15s45.17-23.16 70.9-33.51c12.85-5.15 26.07-9.93 39.55-14s27.13-7.65 40.83-10.4c6.86-1.55 13.7-2.63 20.57-3.89s13.69-2.08 20.55-3c6.81-.75 13.67-1.66 20.46-2.25s13.61-1.23 20.39-1.62a558.73 558.73 0 0 1 83.29.41 459.19 459.19 0 0 1 85 15.11c27.91 7.67 54.6 18.09 78.67 28.42s45.74 20.2 65.77 27.52a299.19 299.19 0 0 0 57.86 15.5 313.34 313.34 0 0 0 59.15 3.44c10.2-.31 20.6-1 31.09-2.1 5.23-.63 10.5-1.11 15.66-1.83s10.32-1.44 15.38-2.36a387.11 387.11 0 0 0 59-15c19.16-6.44 38.06-14.7 57.84-24.35s40.58-20.93 62.9-32.69 46.46-24.12 71.87-35.5a746.22 746.22 0 0 1 79.58-30.43 769.1 769.1 0 0 1 83.07-21.3c7-1.3 13.93-2.67 20.9-3.89l20.86-3.31c13.84-2 27.67-3.84 41.63-5.21A867 867 0 0 1 1920 45.42z"/><g class="cls-4"><path class="cls-5" d="M1920 44.41v2a868.51 868.51 0 0 0-163.8 1.45c-12.34 1.21-25.56 2.86-41.59 5.2l-20.84 3.31c-4.78.84-9.65 1.76-14.36 2.66l-6.52 1.23a768.57 768.57 0 0 0-83 21.26 746 746 0 0 0-79.47 30.39c-27.22 12.19-52.68 25.36-71.81 35.47q-8 4.2-15.72 8.32c-16.55 8.79-32.19 17.09-47.21 24.39-22.14 10.8-40.56 18.55-58 24.4a386.72 386.72 0 0 1-59.1 15.05c-3.15.57-6.41 1-9.55 1.49-1.95.28-3.9.56-5.84.87-3.23.45-6.54.81-9.73 1.16-2 .22-4 .44-6 .68a423.133 423.133 0 0 1-31.18 2.1 312.49 312.49 0 0 1-59.34-3.45c-18.92-3-37.37-7.92-58-15.55-15.11-5.53-31.28-12.56-48.4-20-5.66-2.46-11.46-5-17.41-7.54-30-12.88-55-21.9-78.55-28.38a457.55 457.55 0 0 0-84.84-15.07 553.56 553.56 0 0 0-83.14-.41c-4.52.26-9.13.66-13.59 1.05l-6.79.57c-4.52.39-9.16.94-13.64 1.47l-6.79.78-.84.12c-6.44.9-13.11 1.83-19.66 2.91l-5.59 1c-4.89.86-9.95 1.76-14.92 2.88-11.92 2.39-24.86 5.68-40.77 10.38-12.59 3.81-25.5 8.38-39.46 14-23.4 9.4-45.55 20.68-65.12 30.61l-5.63 2.85c-19.1 9.73-39.79 19.76-61.58 27.2a297.37 297.37 0 0 1-30.87 8.6c-9.1 2-19 3.68-32.23 5.31-1.86.2-3.71.37-5.57.54l-2.73.24-2.08.2c-2 .2-4.16.4-6.3.49l-4.71.27c-4 .23-8.08.48-12.13.52l-8.4.21-12.58-.1-12.52-.54c-13.1-.93-23.62-2.07-33.16-3.61-11-1.81-22.11-4.12-32.94-6.87-22.77-5.91-45.8-14.2-67.44-22.17-23.48-8.6-47.77-17.49-73.69-24-13-3.3-26.23-6-39.26-8-13.46-1.92-26.86-3.19-39.79-3.77-15.46-.52-28-.44-39.51.25-5.32.24-10.77.6-16.23 1.07H0v-2c5.39-.46 10.87-.82 16.2-1.07 11.55-.69 24.17-.77 39.69-.25 13 .58 26.47 1.86 40 3.79 13.1 2 26.37 4.71 39.45 8 26 6.56 50.37 15.47 73.9 24.08 21.6 8 44.57 16.22 67.25 22.11 10.77 2.74 21.79 5 32.76 6.83 9.48 1.53 19.95 2.67 32.95 3.59l12.46.52 12.52.1 8.37-.21c4 0 8.1-.29 12.05-.52l4.74-.27c2.09-.08 4.18-.28 6.2-.48l2.09-.2 2.73-.25c1.85-.16 3.69-.32 5.52-.53 13.11-1.62 23-3.24 32-5.27a296.73 296.73 0 0 0 30.67-8.54c21.67-7.41 42.28-17.4 61.32-27.09l5.63-2.86c19.59-9.94 41.8-21.21 65.35-30.69 14-5.61 27-10.21 39.63-14 16-4.71 29-8 40.92-10.42 5-1.12 10.08-2 15-2.89l5.6-1c6.59-1.09 13.27-2 19.73-2.93l.86-.12c2.28-.25 4.54-.51 6.8-.78 4.5-.53 9.16-1.08 13.71-1.47 2.27-.18 4.52-.38 6.78-.58 4.48-.38 9.1-.79 13.64-1.05a556.05 556.05 0 0 1 83.43.42A459.69 459.69 0 0 1 935.19 149c23.65 6.5 48.69 15.55 78.79 28.47q8.94 3.84 17.43 7.54c17.09 7.43 33.23 14.45 48.29 20 20.56 7.59 38.88 12.5 57.68 15.46a310.16 310.16 0 0 0 59 3.42c10.31-.31 20.74-1 31-2.09 2-.24 4-.46 6-.68 3.18-.34 6.47-.7 9.65-1.15 1.93-.3 3.89-.58 5.85-.87 3.13-.45 6.37-.91 9.49-1.48a384.11 384.11 0 0 0 58.81-15c17.32-5.82 35.66-13.54 57.72-24.3 15-7.28 30.61-15.57 47.15-24.35q7.74-4.11 15.72-8.33c19.17-10.12 44.66-23.31 71.93-35.53a747.12 747.12 0 0 1 79.69-30.46 769.13 769.13 0 0 1 83.17-21.33c2.18-.4 4.35-.82 6.52-1.23 4.72-.89 9.6-1.82 14.41-2.66l20.87-3.32c16.08-2.34 29.32-4 41.69-5.21A870.71 870.71 0 0 1 1920 44.41z"/></g><path class="cls-6" d="M1920 72.17v223.29a660.92 660.92 0 0 0-93.59-5.59c-10.74.05-21.57.49-32.33 1.06l-16 1.09c-5.3.45-10.54 1-15.83 1.51a564.48 564.48 0 0 0-62 10 547 547 0 0 0-60.94 17.27c-20.52 7.08-41.45 15.44-63.77 24.83s-46 19.75-71.88 29.6-53.22 19.09-81.77 25.91a560.36 560.36 0 0 1-86.52 13.88c-7.21.62-14.38.9-21.56 1.34s-14.25.38-21.37.56q-21.35.24-43.12-1.15a469.7 469.7 0 0 1-88.1-13.78 455 455 0 0 1-83-30.69c-19.47-9.32-37.15-19.08-53.55-28.09q-7.58-4.17-14.8-8.08c-12.4-6.72-24.19-12.79-35.84-18.15-7.62-3.51-15.18-6.73-22.8-9.62a327 327 0 0 0-59.82-16.5 434.71 434.71 0 0 0-64.9-6.3 456.19 456.19 0 0 0-65.76 2.76c-10.74 1.15-21.23 3-31.73 5.14s-20.85 4.92-31.31 8.06c-20.9 6.31-42.22 15-65.75 24.47s-49.61 19.29-77.05 26a392.75 392.75 0 0 1-41.61 7.72c-13.95 1.83-27.84 2.68-41.6 3.13-13.75.22-27.27.07-40.8-.84l-10.14-.68-10.16-1-5.08-.52-5.08-.67-10.15-1.37c-13.51-2.19-27-4.78-40.23-8.18s-26.27-7.41-38.95-11.93c-25.32-9.1-49-20.16-71.34-30.76s-43.56-20.51-65.14-28.09q-16.16-5.68-32.63-9.8c-11-2.61-22.25-4.75-33.62-6.31s-22.89-2.57-34.55-2.92c-11.63-.55-23.46-.45-35.23 0q-19.26.74-38.55 3v-45q17.1-3.36 34.46-5.61c12.88-1.65 25.78-2.9 38.9-3.49 13.09-.79 26.33-.71 39.61-.26s26.62 1.89 39.9 3.79 26.42 4.72 39.35 8c17.63 4.45 34.65 10 51.07 15.84 7.71 2.73 15.28 5.5 22.73 8.22 23.31 8.6 45.41 16.44 67.34 22.13 11 2.8 21.89 5.06 32.85 6.86s22 2.83 33 3.61l8.33.34 4.16.18h4.19l8.36.07 8.41-.22c5.6-.06 11.22-.49 16.81-.79 2.82-.11 5.56-.43 8.33-.67s5.53-.49 8.27-.79c10.91-1.35 21.68-2.95 32.13-5.3A296.07 296.07 0 0 0 529 260.1c20.2-6.91 39.88-16.16 61.45-27.15s45.17-23.16 70.9-33.51c12.85-5.14 26.07-9.92 39.55-14s27.1-7.66 40.84-10.44c6.86-1.55 13.7-2.62 20.57-3.88s13.69-2.08 20.55-3c6.81-.76 13.67-1.67 20.46-2.26s13.61-1.23 20.39-1.62a558.75 558.75 0 0 1 83.29.42 459.17 459.17 0 0 1 85 15.1c27.91 7.66 54.6 18.1 78.67 28.42s45.74 20.2 65.77 27.53a299.86 299.86 0 0 0 57.86 15.49 314.16 314.16 0 0 0 59.15 3.45c10.2-.32 20.6-1 31.09-2.11 5.23-.63 10.5-1.1 15.66-1.82s10.32-1.45 15.38-2.36a387.14 387.14 0 0 0 59-15c19.15-6.45 38.06-14.7 57.84-24.34s40.58-20.93 62.9-32.7 46.46-24.11 71.87-35.5a745.4 745.4 0 0 1 79.58-30.43 766.77 766.77 0 0 1 83.07-21.3c7-1.3 13.93-2.67 20.89-3.88l20.87-3.32c13.84-2 27.67-3.84 41.63-5.21A887.47 887.47 0 0 1 1920 72.17z"/><path class="cls-7" d="M1920 71.17v2a890.76 890.76 0 0 0-106.69 4.47c-12.11 1.19-25.32 2.85-41.59 5.21l-20.85 3.32c-4.84.84-9.79 1.78-14.57 2.69L1730 90a771.8 771.8 0 0 0-83 21.27 741.83 741.83 0 0 0-79.47 30.4c-27.22 12.19-52.68 25.36-71.81 35.47q-8 4.2-15.71 8.32c-16.56 8.79-32.2 17.09-47.22 24.39-22.08 10.76-40.49 18.51-58 24.38a385.5 385.5 0 0 1-59.1 15.06c-3 .55-6.2 1-9.24 1.45-2 .29-4.11.59-6.15.92-3.21.45-6.49.8-9.66 1.14-2 .22-4 .44-6 .68a429.773 429.773 0 0 1-31.18 2.12 313.08 313.08 0 0 1-59.34-3.46c-18.9-3-37.35-7.92-58.05-15.55-15.07-5.51-31.19-12.52-48.26-19.94-5.7-2.48-11.55-5-17.55-7.6-19-8.13-47.7-19.91-78.54-28.37a456 456 0 0 0-84.85-15.07 552.28 552.28 0 0 0-83.14-.42c-4.53.26-9.14.66-13.6 1-2.26.2-4.52.4-6.78.58-4.62.4-9.37 1-14 1.5l-6.47.75-.69.1c-6.49.91-13.21 1.85-19.81 2.94-1.9.35-3.81.68-5.73 1-4.84.85-9.86 1.73-14.78 2.85-12.07 2.42-25 5.72-40.77 10.38-12.55 3.8-25.46 8.37-39.46 14-23.32 9.38-45.37 20.56-64.82 30.43l-6 3c-18.13 9.24-39.62 19.7-61.58 27.21a295.56 295.56 0 0 1-30.87 8.59c-11.57 2.6-23.3 4.2-32.23 5.31-1.71.19-3.43.34-5.15.5l-3.14.29-2.29.21c-2 .19-4 .38-6.1.47l-4.32.24c-4.1.25-8.34.5-12.52.55l-8.39.22-12.59-.1-12.52-.52c-13-.92-23.55-2.07-33.16-3.63a384.395 384.395 0 0 1-32.94-6.87c-22.93-5.95-45.89-14.21-67.44-22.16l-1.53-.56c-3.76-1.38-7.6-2.78-11.48-4.18q-4.82-1.75-9.7-3.48c-13.64-4.81-31.76-11-51-15.81-13.16-3.32-26.37-6-39.26-8-13.53-1.94-26.93-3.21-39.79-3.78-15.39-.52-27.94-.44-39.51.26-12.08.54-24.77 1.68-38.83 3.48a537.284 537.284 0 0 0-34.4 5.6h-.19v-2c11.45-2.24 23-4.12 34.33-5.58 14.12-1.81 26.87-2.95 39-3.5 11.62-.7 24.24-.78 39.69-.26 13 .57 26.4 1.85 40 3.8 13 2 26.24 4.67 39.45 8 15.41 3.89 30.1 8.6 42.35 12.8 3.1 1.06 6.05 2.09 8.81 3.06 7.19 2.55 14.32 5.15 21.21 7.67l1.53.56c21.51 7.94 44.41 16.18 67.25 22.11 10.66 2.72 21.69 5 32.76 6.83 9.55 1.54 20 2.69 32.95 3.6l12.46.52 12.52.1 8.37-.22c4.15 0 8.36-.3 12.44-.54l4.35-.25c2-.08 4.05-.27 6-.46l2.29-.21 3.15-.29c1.71-.16 3.41-.31 5.1-.5 8.87-1.1 20.54-2.69 32-5.27a296.7 296.7 0 0 0 30.67-8.53c21.83-7.48 43.25-17.9 61.32-27.11l6-3c19.49-9.89 41.58-21.09 65-30.51 14-5.62 27-10.21 39.63-14 15.82-4.69 28.82-8 40.92-10.43 5-1.12 10-2 14.86-2.86 1.91-.34 3.82-.67 5.73-1 6.64-1.1 13.37-2 19.88-2.95l.71-.1c2.18-.24 4.33-.5 6.49-.75 4.6-.55 9.36-1.11 14-1.52q3.39-.27 6.77-.57c4.48-.39 9.11-.79 13.65-1.05a556.15 556.15 0 0 1 83.43.42 459 459 0 0 1 85.22 15.14c31 8.5 59.8 20.31 78.79 28.46q9 3.87 17.57 7.6c17 7.41 33.13 14.42 48.15 19.91 20.57 7.58 38.9 12.49 57.68 15.44a310.72 310.72 0 0 0 59 3.44c10.36-.32 20.8-1 31-2.1 2-.25 4-.46 6-.68 3.16-.35 6.42-.7 9.58-1.14 2-.33 4.1-.62 6.17-.92 3-.44 6.15-.89 9.17-1.43a385.21 385.21 0 0 0 58.81-15c17.39-5.85 35.73-13.57 57.72-24.29 15-7.28 30.62-15.58 47.16-24.36q7.74-4.11 15.71-8.32c19.16-10.12 44.66-23.31 71.93-35.53a747.23 747.23 0 0 1 79.69-30.48 772.31 772.31 0 0 1 83.17-21.32l6.31-1.19c4.79-.91 9.74-1.85 14.61-2.69l20.88-3.33c16.31-2.37 29.56-4 41.69-5.22A892.11 892.11 0 0 1 1920 71.17z"/></g></g></svg>